<svg width="60" height="60" viewBox="0 0 60 60" fill="none" xmlns="http://www.w3.org/2000/svg">
<g clip-path="url(#clip0)">
<g filter="url(#filter0_d)">
<path d="M47.5 7.5V52.5H32.5V43.75H27.5V52.5H12.5V7.5H47.5ZM37.5 17.5H42.5V12.5H37.5V17.5ZM27.5 17.5H32.5V12.5H27.5V17.5ZM17.5 17.5H22.5V12.5H17.5V17.5ZM37.5 27.5H42.5V22.5H37.5V27.5ZM27.5 27.5H32.5V22.5H27.5V27.5ZM17.5 27.5H22.5V22.5H17.5V27.5ZM37.5 37.5H42.5V32.5H37.5V37.5ZM27.5 37.5H32.5V32.5H27.5V37.5ZM17.5 37.5H22.5V32.5H17.5V37.5ZM37.5 47.5H42.5V42.5H37.5V47.5ZM17.5 47.5H22.5V42.5H17.5V47.5ZM52.5 2.5H7.5V57.5H52.5V2.5Z" fill="white"/>
</g>
</g>
<defs>
<filter id="filter0_d" x="3.5" y="2.5" width="53" height="63" filterUnits="userSpaceOnUse" color-interpolation-filters="sRGB">
<feFlood flood-opacity="0" result="BackgroundImageFix"/>
<feColorMatrix in="SourceAlpha" type="matrix" values="0 0 0 0 0 0 0 0 0 0 0 0 0 0 0 0 0 0 127 0"/>
<feOffset dy="4"/>
<feGaussianBlur stdDeviation="2"/>
<feColorMatrix type="matrix" values="0 0 0 0 0 0 0 0 0 0 0 0 0 0 0 0 0 0 0.25 0"/>
<feBlend mode="normal" in2="BackgroundImageFix" result="effect1_dropShadow"/>
<feBlend mode="normal" in="SourceGraphic" in2="effect1_dropShadow" result="shape"/>
</filter>
<clipPath id="clip0">
<rect width="60" height="60" fill="white"/>
</clipPath>
</defs>
</svg>
